<svg id="Capa_1" data-name="Capa 1" xmlns="http://www.w3.org/2000/svg" xmlns:xlink="http://www.w3.org/1999/xlink" viewBox="0 0 392 198.08"><defs><style>.cls-1{fill:none;}.cls-2{fill:#ccc;}.cls-3{clip-path:url(#clip-path);}.cls-4{fill:#393939;}.cls-5{fill:#fff;}.cls-6{fill:#fecf67;}</style><clipPath id="clip-path"><path class="cls-1" d="M9,7.7V163H384V80.3A80.33,80.33,0,0,0,303.64,0H16.71A7.71,7.71,0,0,0,9,7.7Z"/></clipPath></defs><title>Mesa de trabajo 1</title><path class="cls-2" d="M9,7.7V163H384V80.3A80.33,80.33,0,0,0,303.64,0H16.71A7.71,7.71,0,0,0,9,7.7Z"/><g class="cls-3"><rect class="cls-4" y="89" width="392" height="67"/></g><g class="cls-3"><rect class="cls-4" y="74" width="392" height="11"/></g><path class="cls-5" d="M275.18,162h74.2c0-21-16.6-35.9-37.1-35.9S275.18,141,275.18,162Z"/><path class="cls-5" d="M41,162h74.2c0-21-16.6-35.9-37.1-35.9S41,141,41,162Z"/><path class="cls-6" d="M380.8,104.08a14.62,14.62,0,0,0,0,28,3.37,3.37,0,0,0,4.2-3.3v-21.5A3.27,3.27,0,0,0,380.8,104.08Z"/><path class="cls-5" d="M371.5,69c-3.4-34-42.9-62-91.1-62H42.9C30.1,7,22,15,22,24.3V69Z"/><rect class="cls-2" x="85" y="2" width="7" height="70"/><rect class="cls-2" x="192" y="2" width="7" height="70"/><rect class="cls-2" x="300" y="8" width="7" height="64"/><circle class="cls-4" cx="312.28" cy="163.88" r="34.2"/><circle class="cls-5" cx="312.28" cy="164.38" r="22"/><circle class="cls-4" cx="78.08" cy="163.88" r="34.2"/><circle class="cls-5" cx="78.08" cy="164.38" r="22"/></svg>