<svg id="Capa_1" data-name="Capa 1" xmlns="http://www.w3.org/2000/svg" viewBox="0 0 32 32"><title>Mesa de trabajo 11</title><g id="Outline_Color_copy_2" data-name="Outline Color copy 2"><path d="M28,1a3,3,0,0,1,3,3V28a3,3,0,0,1-3,3H4a3,3,0,0,1-3-3V4A3,3,0,0,1,4,1H28m0-1H4A4,4,0,0,0,0,4V28a4,4,0,0,0,4,4H28a4,4,0,0,0,4-4V4a4,4,0,0,0-4-4Z"/><path d="M22.71,7H9.29A2.29,2.29,0,0,0,7,9.29V22.71A2.29,2.29,0,0,0,9.29,25H22.71A2.29,2.29,0,0,0,25,22.71V9.29A2.29,2.29,0,0,0,22.71,7ZM16.5,12.75a3.57,3.57,0,1,1-3.68,3.56A3.62,3.62,0,0,1,16.5,12.75ZM23,22.43c0,.4-.18.57-.58.57H9.58c-.41,0-.58-.17-.58-.57v-8l1.45.31a5.25,5.25,0,0,0-.24,1.57A5.67,5.67,0,0,0,16,21.81a5.66,5.66,0,0,0,5.8-5.51,5.24,5.24,0,0,0-.24-1.57L23,14.41v8Zm0-10.09c.35.32.1.57-.22.66H20.49c-.32-.09-.57-.35-.49-.66V10c-.08-.32.17-.57.49,0h2.29c.32-.52.57-.27.22,0Z"/></g></svg>