<svg id="Capa_1" data-name="Capa 1" xmlns="http://www.w3.org/2000/svg" viewBox="0 0 110.69 110.81"><defs><style>.cls-1{fill:none;}</style></defs><title>Mesa de trabajo 5</title><path class="cls-1" d="M66.8,78.5c-7.27,3.68-15.51,3.29-22.79,0-11.32-5.13-21.85-4.29-32.42,2,1.21,1.79,2.54,3.69,3.8,5.64a3.08,3.08,0,0,0,4.14,1.46c8.65-2.92,17-1.5,25.22,1.91,7.37,3,14.86,3.18,22.22-.39a29.21,29.21,0,0,1,21.84-2c4.07,1.26,6.17.28,8-3.06.71-1.31,1.59-2.52,2.4-3.79C88.58,74.93,78.14,72.75,66.8,78.5Z"/><path class="cls-1" d="M70.58,93c-10,4.85-19.82,4.52-29.86.27-6.08-2.57-12.4-3.34-19-1.17,15.37,17,48.35,19.17,67.31.15C82.47,90.24,76.32,90.25,70.58,93Z"/><path d="M55.52,0a55.4,55.4,0,1,0,55.17,55.27A55.06,55.06,0,0,0,55.52,0ZM21.75,92.13c6.57-2.17,12.89-1.4,19,1.17,10,4.25,19.86,4.58,29.86-.27,5.74-2.78,11.89-2.78,18.48-.75C70.1,111.31,37.12,109.09,21.75,92.13Zm75-8.05c-1.81,3.34-3.91,4.32-8,3.06a29.21,29.21,0,0,0-21.84,2c-7.36,3.57-14.85,3.43-22.22.39-8.26-3.41-16.58-4.83-25.22-1.91a3.08,3.08,0,0,1-4.14-1.46c-1.26-1.94-2.59-3.84-3.8-5.64,10.57-6.32,21.09-7.16,32.42-2,7.28,3.3,15.52,3.7,22.79,0,11.34-5.75,21.79-3.57,32.4,1.79C98.38,81.56,97.5,82.77,96.79,84.08Zm3-9.41c-2.56-.87-13.23-4.11-14.31-4.28a31.45,31.45,0,0,0-18.89,2.94c-7.4,3.51-14.86,3.07-22.24.05a39.47,39.47,0,0,0-16.48-3.26c-1.15,0-13.72,3.07-15.48,4.24-2.79,1.86-4-.22-4.86-2.72C-3.85,39.41,20.8,4.94,55.27,4.92c34.29,0,58.87,33.78,48,66.1C102.73,72.63,102.84,75.71,99.77,74.67Z"/><polygon points="62.35 60.86 30.2 60.86 62.35 15.86 62.35 60.86"/><path d="M66.35,58.86H84.56C85.1,43,80.17,30.47,66.35,23.5Z"/><path d="M19.35,65.08l76-4V73.86H70.23C61.52,78.78,51.81,79,41,73.86H19.35Z"/></svg>