<?xml version="1.0" encoding="utf-8"?>
<!-- Generator: Adobe Illustrator 21.1.0, SVG Export Plug-In . SVG Version: 6.00 Build 0)  -->
<svg version="1.1" id="Capa_1" xmlns="http://www.w3.org/2000/svg" xmlns:xlink="http://www.w3.org/1999/xlink" x="0px" y="0px"
	 viewBox="0 0 110.7 110.8" style="enable-background:new 0 0 110.7 110.8;" xml:space="preserve">
<style type="text/css">
	.st0{fill:none;}
	.st1{fill:#393939;}
	.st2{fill:#CCCCCC;}
	.st3{clip-path:url(#SVGID_2_);fill:#393939;}
	.st4{clip-path:url(#SVGID_4_);fill:#393939;}
	.st5{fill:#FFFFFF;}
	.st6{fill:#FECF67;}
</style>
<g>
	<path class="st0" d="M66.8,78.5c-7.3,3.7-15.5,3.3-22.8,0c-11.3-5.1-21.8-4.3-32.4,2c1.2,1.8,2.5,3.7,3.8,5.6
		c1,1.6,2.2,2.1,4.1,1.5c8.6-2.9,17-1.5,25.2,1.9c7.4,3,14.9,3.2,22.2-0.4c7-3.4,14.5-4.3,21.8-2c4.1,1.3,6.2,0.3,8-3.1
		c0.7-1.3,1.6-2.5,2.4-3.8C88.6,74.9,78.1,72.8,66.8,78.5z"/>
	<path class="st0" d="M70.6,93c-10,4.8-19.8,4.5-29.9,0.3c-6.1-2.6-12.4-3.3-19-1.2c15.4,17,48.4,19.2,67.3,0.1
		C82.5,90.2,76.3,90.2,70.6,93z"/>
	<path class="st1" d="M55.5,0C24.5,0,0,24.5,0,55.4c0,30.6,24.7,55.3,55.2,55.4c30.7,0.1,55.6-24.7,55.5-55.5
		C110.7,24.6,86.1,0,55.5,0z M21.7,92.1c6.6-2.2,12.9-1.4,19,1.2c10,4.2,19.9,4.6,29.9-0.3c5.7-2.8,11.9-2.8,18.5-0.7
		C70.1,111.3,37.1,109.1,21.7,92.1z M96.8,84.1c-1.8,3.3-3.9,4.3-8,3.1c-7.4-2.3-14.8-1.4-21.8,2c-7.4,3.6-14.9,3.4-22.2,0.4
		c-8.3-3.4-16.6-4.8-25.2-1.9c-2,0.7-3.1,0.1-4.1-1.5c-1.3-1.9-2.6-3.8-3.8-5.6c10.6-6.3,21.1-7.2,32.4-2c7.3,3.3,15.5,3.7,22.8,0
		c11.3-5.7,21.8-3.6,32.4,1.8C98.4,81.6,97.5,82.8,96.8,84.1z M99.8,74.7c-2.6-0.9-13.2-4.1-14.3-4.3c-6.6-1.1-12.9,0.1-18.9,2.9
		c-7.4,3.5-14.9,3.1-22.2,0.1c-5.2-2.1-10.8-3.5-16.5-3.3c-1.2,0-13.7,3.1-15.5,4.2c-2.8,1.9-4-0.2-4.9-2.7
		C-3.9,39.4,20.8,4.9,55.3,4.9c34.3,0,58.9,33.8,48,66.1C102.7,72.6,102.8,75.7,99.8,74.7z"/>
	<polygon class="st1" points="62.3,60.9 30.2,60.9 62.3,15.9 	"/>
	<path class="st1" d="M66.3,58.9h18.2c0.5-15.9-4.4-28.4-18.2-35.4V58.9z"/>
	<path class="st1" d="M19.3,65.1l76-4v12.8H70.2c-8.7,4.9-18.4,5.1-29.2,0H19.3V65.1z"/>
</g>
</svg>
