<svg id="Capa_1" data-name="Capa 1" xmlns="http://www.w3.org/2000/svg" viewBox="0 0 279.92 276"><defs><style>.cls-1{fill:#393939;}.cls-2{fill:#ccc;}</style></defs><title>Mesa de trabajo 13</title><path class="cls-1" d="M110.25,161.34H75.84c-3.46,0-5.59-2.38-5.06-5.8q3.11-20.09,6.3-40.18,3-19.12,6.05-38.23,3.76-23.81,7.52-47.62C91.77,22.38,93,15.26,94,8.11c.57-4,2.47-6.75,6.45-7.87a1.26,1.26,0,0,0,.34-.24h63.54c2.55.56,5.16.49,7.74.82,7.58,1,15,2.58,21.64,6.55,10.28,6.15,15.73,15.29,16.37,27.28a72.48,72.48,0,0,1-.68,11.56,4.63,4.63,0,0,0-.21.66,82.15,82.15,0,0,1-5.39,19.18c-4.52,10.69-11.42,19.39-21.4,25.48-10.22,6.23-21.53,8.69-33.3,9.19-7.26.31-14.55.11-21.82.14a8.55,8.55,0,0,0-5.36,1.7c-2.32,1.78-3.06,4.33-3.48,7.07-1.18,7.66-2.4,15.32-3.6,23-1,6.24-1.93,12.48-2.92,18.72C111.38,154.67,110.81,158,110.25,161.34Z"/><path class="cls-1" d="M106.93,276c-1.07-1-1-2-.16-3.21,3.27-4.54,6.46-9.13,9.73-13.66a2.31,2.31,0,0,0,.35-2.4Q111.4,240.88,106,225c-.8-2.36-.17-3.26,2.28-3.26h9c2.14,0,3,.65,3.64,2.72q2.8,9.3,5.58,18.6c.09.31.21.61.38,1.13,1.24-1.81,2.38-3.47,3.52-5.14,3.48-5.13,7-10.24,10.43-15.39a3.85,3.85,0,0,1,3.59-1.93c3.08.08,6.15,0,9.23,0,.93,0,1.79.07,2.26,1a2.15,2.15,0,0,1-.42,2.33q-17.17,24.76-34.32,49.53a8.87,8.87,0,0,1-1.36,1.38Z"/><path class="cls-2" d="M279.92,205.18a51.79,51.79,0,0,0-1.36,7.49c-1.32,8.08-2.57,16.17-3.84,24.26q-1.73,11-3.46,21.92c-.37,2.35-1.35,3.31-3.68,3.34-2.66,0-5.31,0-8,0-1.88,0-2.55-1-2.25-2.83,1.39-8.78,2.75-17.56,4.13-26.33q2-12.61,4-25.22c.23-1.42.46-2.85.67-4.27a2.08,2.08,0,0,1,2.4-2c3,0,6,0,9,0a2.67,2.67,0,0,1,2.41,1.11Z"/><path class="cls-2" d="M110.25,161.34c.56-3.34,1.13-6.68,1.66-10,1-6.24,1.94-12.48,2.92-18.72,1.2-7.66,2.42-15.32,3.6-23,.42-2.74,1.16-5.29,3.48-7.07a8.55,8.55,0,0,1,5.36-1.7c7.27,0,14.56.17,21.82-.14,11.77-.5,23.08-3,33.3-9.19,10-6.08,16.87-14.79,21.4-25.48a82.15,82.15,0,0,0,5.39-19.18,4.63,4.63,0,0,1,.21-.66c9,4.75,13.88,12.41,14.75,22.33a63,63,0,0,1-10.72,41.94c-6.78,10-16.6,15.71-28.19,18.55a79.23,79.23,0,0,1-15.34,2c-2.7.12-5.4.1-8.11.13-3.73,0-6.35,2-7,5.74-1,5.58-1.84,11.21-2.75,16.81-1.19,7.35-2.31,14.71-3.61,22-.64,3.62-3.37,5.67-7.07,5.68q-14.41,0-28.83,0c-3.27,0-5-2.17-4.51-5.37C108.77,171.19,109.5,166.26,110.25,161.34Z"/><path class="cls-1" d="M52.63,215a12.77,12.77,0,0,0-8.39-11.53,23.54,23.54,0,0,0-8.86-1.77c-7.51-.07-15-.05-22.52-.06-2.78,0-3.66.71-4.1,3.48-2.48,15.69-4.92,31.38-7.43,47.07C1,254.5.87,256.93,0,259.2v1.68a3.05,3.05,0,0,0,2.89,1.27c3-.07,6.06,0,9.09,0a3.06,3.06,0,0,0,3.42-2.94q1.13-7,2.23-14.08C18,242.84,19,242,21.3,242c3.4,0,6.81.15,10.2-.19,7.72-.79,14.09-3.87,17.85-11A28.74,28.74,0,0,0,52.63,215ZM27.72,229.63c-1.3.14-2.6.17-3.81.24-1.31-.21-3,.53-3.63-.37-.51-.73.19-2.3.37-3.5.5-3.27,1-6.54,1.52-9.81.32-2,.74-2.41,2.83-2.4a34,34,0,0,1,6.56.33c3.22.65,4.83,2.61,4.81,5.89C36.34,225.9,33.55,229,27.72,229.63Z"/><path class="cls-2" d="M206.15,209.07c-2.88-4.91-7.66-6.54-12.91-7.22-4.64-.6-9.32-.12-13.11-.28-4.79,0-8.71,0-12.63,0a3.11,3.11,0,0,0-3.42,2.81c-.23,1.24-.4,2.48-.59,3.72q-2.6,16.56-5.2,33.12c-.95,6-1.94,12-2.88,18.07-.31,2,.34,2.86,2.19,2.89q5.18.08,10.36,0a2.21,2.21,0,0,0,2.54-2.21c.76-4.69,1.52-9.38,2.22-14.07.48-3.24,1.14-3.86,4.42-3.86a72.35,72.35,0,0,0,11.58-.49c7.14-1.16,12.74-4.58,16.1-11.19a31.08,31.08,0,0,0,3.1-11.82A15.79,15.79,0,0,0,206.15,209.07Zm-14.7,12.61c-.66,5-3.3,7.52-8.34,7.9l-3.9.28c-1.43-.15-3,.46-3.63-.27s.11-2.19.28-3.32c.51-3.54,1.11-7.07,1.66-10.6a1.9,1.9,0,0,1,2.16-1.86,52.28,52.28,0,0,1,6,.16C190.4,214.67,192.07,216.92,191.45,221.68Z"/><path class="cls-2" d="M253.55,221.73c-2.7,0-5.41,0-8.11,0-3.31,0-3.31,0-4,3.18-.06.27-.14.54-.28,1a8.93,8.93,0,0,0-5.4-4.15c-8.5-2.35-16.26-1-22.92,5a24.63,24.63,0,0,0-8.17,17.52c-.34,5.69,1,11,5.51,14.78,5.94,5,12.76,5,19.75,2.42a21.85,21.85,0,0,0,6.39-4.08c-.14.83-.24,1.33-.32,1.83-.33,2.06.34,2.89,2.45,2.91q4.06,0,8.11,0c2.26,0,3.33-.94,3.68-3.17q2.77-17.37,5.52-34.74C256.06,222.59,255.31,221.74,253.55,221.73Zm-15.3,23.86a11.72,11.72,0,0,1-13.71,5.92,7.48,7.48,0,0,1-5.59-7.46A11.65,11.65,0,0,1,230.7,232C238.34,231.71,241.61,238.81,238.25,245.59Z"/><path class="cls-1" d="M98.38,221.75c-3.26,0-6.53,0-9.79,0a1.88,1.88,0,0,0-2.11,1.76c-.11.72-.25,1.43-.46,2.59a9.11,9.11,0,0,0-5.6-4.32,23.66,23.66,0,0,0-16.41.87,25,25,0,0,0-14.38,25.78c.86,6.16,3.68,11.18,9.79,13.38,7.26,2.62,14.13,1.47,20.32-3.26.35-.27.6-.72,1.14-.78a3,3,0,0,1-.06,1.62c-.28,2,.33,2.74,2.41,2.75q4.06,0,8.11,0c2.36,0,3.32-.81,3.69-3.11q1.63-10.14,3.22-20.29c.76-4.83,1.54-9.66,2.26-14.5C100.75,222.49,100.08,221.76,98.38,221.75Zm-14.16,20.1A11.64,11.64,0,0,1,72.51,252c-6,0-9.47-3.89-8.69-9.83a11.75,11.75,0,0,1,14-10C82.34,233,84.95,237,84.22,241.85Z"/></svg>