<svg id="Capa_1" data-name="Capa 1" xmlns="http://www.w3.org/2000/svg" viewBox="0 0 300 300"><title>Mesa de trabajo 9</title><path d="M300,91V85c-2.43-3.66-6.07-4.18-10.09-4.12-29.29.4-58.58.64-87.86,1.17-4.66.08-7.55-1.32-10.27-5.22-16.55-23.77-33.37-47.34-50.13-71-1.44-2-3.09-3.91-4.65-5.86h-7a20.81,20.81,0,0,0-4.61,8.7C116.67,37,107.79,65.21,99.08,93.5a7.49,7.49,0,0,1-5.57,5.58C65.22,107.78,37,116.67,8.7,125.39A21.06,21.06,0,0,0,0,130v7c17.49,13.58,36,25.7,54,38.68,7.82,5.66,15.63,11.35,23.68,16.67C81,194.58,82.08,197.17,82,201c-.46,29.62-.74,59.24-1.14,88.86-.05,4,.47,7.66,4.12,10.1h6c25-18.61,50-37.17,74.88-55.91,3.3-2.48,6.14-3,10.05-1.65,27.56,9.48,55.19,18.77,82.82,28.08a26.25,26.25,0,0,0,6.27,1.56,6.32,6.32,0,0,0,7.08-7.08,26.11,26.11,0,0,0-1.57-6.26c-9.31-27.62-18.6-55.25-28.08-82.81-1.35-3.91-.83-6.75,1.65-10.05C262.83,141,281.39,116,300,91Z"/></svg>