<svg id="Capa_1" data-name="Capa 1" xmlns="http://www.w3.org/2000/svg" viewBox="0 0 32 32"><title>Mesa de trabajo 12</title><g id="Outline_Color_copy_2" data-name="Outline Color copy 2"><path d="M28,1a3,3,0,0,1,3,3V28a3,3,0,0,1-3,3H4a3,3,0,0,1-3-3V4A3,3,0,0,1,4,1H28m0-1H4A4,4,0,0,0,0,4V28a4,4,0,0,0,4,4H28a4,4,0,0,0,4-4V4a4,4,0,0,0-4-4Z"/><path d="M18.33,8.92a3.85,3.85,0,0,0-2.59,3.87l0,.66-.66-.08a10.81,10.81,0,0,1-6.33-3.12L7.9,9.38,7.67,10a3.89,3.89,0,0,0,.83,4c.53.56.41.65-.51.31a1.59,1.59,0,0,0-.62-.15A4.83,4.83,0,0,0,7.85,16a4.3,4.3,0,0,0,1.82,1.72l.65.31H9.55c-.74,0-.77,0-.69.3a4,4,0,0,0,2.49,2.21l.82.28-.72.43a7.46,7.46,0,0,1-3.57,1,3.87,3.87,0,0,0-1.09.11,10.18,10.18,0,0,0,2.57,1.18,11.23,11.23,0,0,0,8.73-1,11.7,11.7,0,0,0,4.43-5.22,13.87,13.87,0,0,0,.91-4c0-.62,0-.7.78-1.44a8.71,8.71,0,0,0,.93-1c.13-.26.12-.26-.56,0-1.13.4-1.29.35-.73-.26a3.92,3.92,0,0,0,.91-1.44s-.2,0-.43.15a7.22,7.22,0,0,1-1.17.46l-.72.23-.65-.44a5.41,5.41,0,0,0-1.13-.59A4.54,4.54,0,0,0,18.33,8.92Z"/></g></svg>