<svg id="Capa_1" data-name="Capa 1" xmlns="http://www.w3.org/2000/svg" viewBox="0 0 32 32"><title>Mesa de trabajo 10</title><g id="Outline_Color_copy_2" data-name="Outline Color copy 2"><path d="M28,1a3,3,0,0,1,3,3V28a3,3,0,0,1-3,3H4a3,3,0,0,1-3-3V4A3,3,0,0,1,4,1H28m0-1H4A4,4,0,0,0,0,4V28a4,4,0,0,0,4,4H28a4,4,0,0,0,4-4V4a4,4,0,0,0-4-4Z"/><path d="M15.45,16.38a5.41,5.41,0,0,1-1.26-1.64.38.38,0,0,1,0-.4,7.47,7.47,0,0,1,.49-.58c.16-.2.29-.38.23-.54l-.81-2.11c-.07-.14-.29-.16-.54-.18a3.2,3.2,0,0,0-.61,0,2.93,2.93,0,0,0-1.19,1.8c-.2,1.53,1.19,3.57,2.57,4.83s3.53,2.49,5,2.14A2.8,2.8,0,0,0,21,18.4a1.78,1.78,0,0,0,0-.61c0-.25-.07-.43-.22-.5L19,16.43c-.16-.09-.32,0-.49.18s-.29.38-.52.67-.22.27-.36.29a1.08,1.08,0,0,1-.41-.05,5.81,5.81,0,0,1-1.75-1.14Zm-6,6.47,1-2.65a7.62,7.62,0,1,1,5.78,2.65,7.49,7.49,0,0,1-4.5-1.48ZM8.12,20.25,6.68,26l5.15-2.34a9.53,9.53,0,1,0-5.15-8.47,9.59,9.59,0,0,0,1.44,5Z"/></g></svg>